<svg id="Layer_1" data-name="Layer 1" xmlns="http://www.w3.org/2000/svg" xmlns:xlink="http://www.w3.org/1999/xlink" viewBox="0 0 1080 1080"><defs><style>.cls-1,.cls-10,.cls-2,.cls-6,.cls-9{fill:none;}.cls-1,.cls-10,.cls-2,.cls-6,.cls-8,.cls-9{stroke-miterlimit:10;}.cls-1,.cls-10{stroke-width:58px;stroke:url(#linear-gradient);}.cls-2,.cls-9{stroke-width:52px;stroke:url(#linear-gradient-2);}.cls-3{opacity:0.24;}.cls-4{fill:#606060;}.cls-5{fill:#99d9d9;}.cls-6,.cls-8{stroke:#1d1d1b;stroke-width:2px;}.cls-7{fill:#0a5587;}.cls-8{fill:#002857;}.cls-10,.cls-9{opacity:0.1;}</style><linearGradient id="linear-gradient" x1="361.54" y1="82.21" x2="361.54" y2="1026.41" gradientUnits="userSpaceOnUse"><stop offset="0" stop-color="#33596b"/><stop offset="1" stop-color="#133441"/></linearGradient><linearGradient id="linear-gradient-2" x1="152.57" y1="151.6" x2="152.57" y2="844.75" gradientTransform="translate(106.76 899.76) rotate(-90)" xlink:href="#linear-gradient"/></defs><path class="cls-1" d="M597.59,997.41c-244.72,0-443.1-198.38-443.1-443.1s198.38-443.1,443.1-443.1"/><path class="cls-2" d="M925.51,573.9C925.51,751,782,894.48,604.93,894.48S284.35,751,284.35,573.9"/><g id="K" class="cls-3"><polygon class="cls-4" points="516.84 555.25 581.63 487.04 885.86 855.4 775.43 855.4 516.84 555.25"/><polygon class="cls-4" points="400.81 563.53 400.81 686.35 860.04 202.83 752.45 202.83 400.81 563.53"/><polygon class="cls-4" points="402.32 858.53 307.94 855.4 307.94 197.83 402.32 202.06 402.32 858.53"/></g><g id="K-2" data-name="K"><polygon class="cls-5" points="509.84 545.25 574.63 477.04 878.86 845.4 768.43 845.4 509.84 545.25"/><polygon class="cls-6" points="509.84 545.25 574.63 477.04 878.86 845.4 768.43 845.4 509.84 545.25"/><polygon class="cls-7" points="393.81 553.53 393.81 676.35 853.04 192.83 745.45 192.83 393.81 553.53"/><polygon class="cls-6" points="393.81 553.53 393.81 676.35 853.04 192.83 745.45 192.83 393.81 553.53"/><polygon class="cls-8" points="395.32 848.53 300.94 845.4 300.94 187.83 395.32 192.06 395.32 848.53"/></g><path class="cls-9" d="M925.51,573.9C925.51,751,782,894.48,604.93,894.48S284.35,751,284.35,573.9"/><path class="cls-10" d="M597.59,997.41c-244.72,0-443.1-198.38-443.1-443.1s198.38-443.1,443.1-443.1"/></svg>